inDegrees=no
num_controls=7
num_derivatives=13
num_iterations=114
num_multipliers=7
num_parameters=0
num_slacks=7
num_states=26
objective=4.964560
objective_accelerations=0.545836
objective_balance=0.021937
objective_effort=0.150338
objective_height=4.195505
objective_ligament=0.050944
solver_duration=1252.553793
status=Solve_Succeeded
success=true
DataType=double
version=3
OpenSimVersion=4.4-2022-07-23-0e9fedc
endheader
time	/jointset/ground_pelvis/pelvis_tilt/value	/jointset/ground_pelvis/pelvis_tx/value	/jointset/ground_pelvis/pelvis_ty/value	/jointset/hip_l/hip_flexion_l/value	/jointset/hip_l/hip_adduction_l/value	/jointset/hip_l/hip_rotation_l/value	/jointset/back/lumbar_extension/value	/jointset/patellofemoral_l/patellar_flexion_l/value	/jointset/knee_l/knee_flexion_l/value	/jointset/knee_l/knee_adduction_l/value	/jointset/knee_l/knee_rotation_l/value	/jointset/ankle_l/ankle_angle_l/value	/jointset/subtalar_l/subtalar_angle_l/value	/jointset/ground_pelvis/pelvis_tilt/speed	/jointset/ground_pelvis/pelvis_tx/speed	/jointset/ground_pelvis/pelvis_ty/speed	/jointset/hip_l/hip_flexion_l/speed	/jointset/hip_l/hip_adduction_l/speed	/jointset/hip_l/hip_rotation_l/speed	/jointset/back/lumbar_extension/speed	/jointset/patellofemoral_l/patellar_flexion_l/speed	/jointset/knee_l/knee_flexion_l/speed	/jointset/knee_l/knee_adduction_l/speed	/jointset/knee_l/knee_rotation_l/speed	/jointset/ankle_l/ankle_angle_l/speed	/jointset/subtalar_l/subtalar_angle_l/speed	/forceset/tau_hip_flexion_l	/forceset/tau_hip_adduction_l	/forceset/tau_hip_rotation_l	/forceset/tau_knee_flexion_l	/forceset/tau_ankle_angle_l	/forceset/tau_subtalar_angle_l	/forceset/tau_lumbar_extension	lambda_cid13_p0	lambda_cid13_p1	lambda_cid13_p2	lambda_cid13_p3	lambda_cid13_p4	lambda_cid13_p5	lambda_cid14_p0	/jointset/ground_pelvis/pelvis_tilt/accel	/jointset/ground_pelvis/pelvis_tx/accel	/jointset/ground_pelvis/pelvis_ty/accel	/jointset/hip_l/hip_flexion_l/accel	/jointset/hip_l/hip_adduction_l/accel	/jointset/hip_l/hip_rotation_l/accel	/jointset/back/lumbar_extension/accel	/jointset/patellofemoral_l/patellar_flexion_l/accel	/jointset/knee_l/knee_flexion_l/accel	/jointset/knee_l/knee_adduction_l/accel	/jointset/knee_l/knee_rotation_l/accel	/jointset/ankle_l/ankle_angle_l/accel	/jointset/subtalar_l/subtalar_angle_l/accel	gamma_cid13_p0	gamma_cid13_p1	gamma_cid13_p2	gamma_cid13_p3	gamma_cid13_p4	gamma_cid13_p5	gamma_cid14_p0
1.5	-0.3031434255392596	0.07755275605381654	0.8136884230563399	0.8685522243408823	-0.3687875993912187	-0.06607660247518797	-0.3142525833463024	0.7263227170300356	0.7263227170301025	-0.07356363451745644	-0.1722830085867131	0.2698188644936389	0.1392971822010605	0.3759661397358217	0.2292743215502613	0.3848388166012025	-1.944846966810484	0.01295287398376496	-0.5874608057867561	0.6187850357703002	-1.958384190000993	-1.958384190001035	-0.2371154110842304	0.03365674411445822	-0.5477650113351422	-0.1878522114496354	-0.1154524586658956	0.02831640520063646	0.01012354506240664	-0.122392056531783	-0.05644985345444882	0.01242529962129123	0.1150176655033575	-41.58427796311308	-0.9703423904677118	3.134946100533797	-0.203486729805602	-434.6888257712116	-64.27087868672339	-14.16407190298624	0.3637394103347442	0.3997717867637604	-0.619674810363346	-1.021862607904207	0.2913368989044849	-0.2643140450999625	1.313103250237264	-1.000592800467047	-1.000592800467046	-0.2931113444880353	0.3973541619869622	-0.4042630340309562	0.4074503104781463	1.177308132373122e-07	3.446166026749619e-06	-1.398180867088438e-06	3.909369578117775e-07	4.078575515868968e-07	2.327705921842389e-06	4.375441813689192e-07
1.51	-0.2993655954820124	0.07986520021413954	0.8175051047122955	0.8490539061409318	-0.3686452356227042	-0.07196482317281622	-0.3080007613125156	0.7066905612789254	0.7066905612788427	-0.07595237194787158	-0.1719294691812319	0.264321016435727	0.1374366899780025	0.3795292494594301	0.2331772689885977	0.3784170203832464	-1.95453667911669	0.01553587273237957	-0.5901335622665586	0.6314823585874765	-1.967778265412078	-1.967778265412102	-0.2405834895662676	0.03706795086858042	-0.551721155720842	-0.1842039737023168	-0.1116596398291495	0.0269702730165028	0.01076747222465401	-0.1200191509320233	-0.05571395737068081	0.01130133181756266	0.1117907660026783	-41.30558268269314	-0.6076285225089165	3.164646242649584	-0.09251624899398396	-432.2743845620694	-63.94974420745215	-14.94998280362129	0.3420337754973024	0.3800408105164533	-0.6653658783318076	-0.9004872763784336	0.2442380122552588	-0.2607197027033669	1.23349493717488	-0.8686310109560637	-0.8686310109532358	-0.3659528161406084	0.3151036021685472	-0.3786417040948165	0.3495982778398173	1.919602736861751e-07	3.557702415297391e-06	-2.241081837744798e-06	3.666111116619473e-07	6.01595969471298e-07	2.774701252647247e-06	5.458269355398416e-07
1.52	-0.2955542469231618	0.08221557076647518	0.8212551816359084	0.8294670984709998	-0.3684765505368467	-0.07787816408582846	-0.3016248764226295	0.6869725015537104	0.6869725015536594	-0.07837424950636093	-0.1715413977742255	0.2587861366213041	0.1356138976866119	0.3826698400680492	0.2368595999527877	0.371517870132683	-1.96254486079883	0.01821713745753123	-0.5924848488776426	0.6435976069933661	-1.975564984804235	-1.975564984804243	-0.2437434366914688	0.04056314442448987	-0.5551713626367625	-0.1803122251157555	-0.1078668209923161	0.02562414083274089	0.01141139938718619	-0.1176462453321537	-0.05497806128677286	0.01017736401435403	0.1085638665019315	-41.02364578311845	-0.2525060411973608	3.203581035640308	-0.01534394014552195	-429.8375143493126	-63.70839885845039	-15.73558653444416	0.2792355873365841	0.355648491934848	-0.7151456168847965	-0.6855564830908092	0.3109900942119302	-0.2000200713562863	1.196688367979786	-0.679121596681921	-0.6791215966820057	-0.2314850731208747	0.4141515223444144	-0.3030755400746517	0.4561524783268155	2.179484440785633e-07	3.710319802371151e-06	-2.602845956964868e-06	3.730661693919401e-07	6.787258652402427e-07	3.018698940782867e-06	6.007979713235752e-07
1.53	-0.2917136103683998	0.08460155558260977	0.8249339088910742	0.8098088540874411	-0.3682806145700265	-0.08381373680385666	-0.2951308899924978	0.6671849029791593	0.6671849029791328	-0.08082604500915928	-0.1711183165894586	0.2532193160045115	0.1338311949123386	0.3853921125168129	0.2402889257665584	0.3641528945638635	-1.968809697823668	0.02097113043046923	-0.5945378002457563	0.6550778305163162	-1.98166862819414	-1.981668628194148	-0.24660737847677	0.0440777893295321	-0.5581127648582901	-0.1762097426820799	-0.1041552181310646	0.02426871104785461	0.01204014639198193	-0.115120699563431	-0.05461686696148606	0.008875239814180079	0.1053581565720978	-40.88703607699587	0.2029459702069472	3.229362562556812	0.2538771311187599	-427.5304869500966	-63.29163031025606	-16.51272757402446	0.2589470183198236	0.3293956393271112	-0.7582550928233505	-0.5527657921366377	0.2577184087312478	-0.1935930448819587	1.105412066490284	-0.5331900693227846	-0.5331900693224501	-0.3121212952258019	0.3234555129759973	-0.2775338373548381	0.3897353330079489	1.926802437859476e-07	3.906585750378771e-06	-2.453402171533884e-06	4.122259374942445e-07	6.319592062615162e-07	3.047011633582422e-06	5.991253063209214e-07
1.54	-0.2878477063002757	0.0870203978595276	0.828536770077364	0.7900967976375934	-0.3680571157715251	-0.08976697111059052	-0.2885257567827448	0.6473448270988433	0.6473448270989199	-0.083306134442653	-0.1706594220479557	0.2476255091106678	0.1320900048038231	0.3877233427526059	0.2434310921094322	0.3563446563575214	-1.973307274046697	0.02372970379923372	-0.5960171666275584	0.6658269629208051	-1.986060445951162	-1.986060445951169	-0.2494022228217291	0.04772581577028331	-0.5605686180463466	-0.1720096919636119	-0.1004436152698349	0.02291328126314155	0.01266889339678318	-0.1125951537946504	-0.05425567263612456	0.007573115614249024	0.1021524466421489	-40.75027230976942	0.6517590303383843	3.263756759732449	0.49713743000393	-425.2533570219654	-62.95887238041715	-17.27658251123734	0.2010271447420491	0.298216597755944	-0.8037981443892913	-0.3321043227288347	0.3119061733772458	-0.0853030740939304	1.05047014428737	-0.3367564701055031	-0.3367564701055149	-0.217665585052535	0.4408278294862654	-0.2059657333799003	0.4756661352854692	1.677719432690793e-07	4.137068029232845e-06	-2.308934390356416e-06	4.52819856955151e-07	5.907495622719581e-07	3.088243017388224e-06	6.004474235667308e-07
1.55	-0.2839605152056831	0.0894692031125372	0.8320594090457721	0.7703486953096724	-0.3678059484580922	-0.09573309793213447	-0.2818168970698353	0.6274695446386279	0.627469544638552	-0.08581316947365229	-0.1701640658885127	0.2420096738324041	0.1303914496307446	0.3896429199088329	0.2462785931015393	0.3481170867587676	-1.976007224299672	0.02650429798763675	-0.597122749055697	0.675809596975678	-1.988699142512557	-1.988699142512567	-0.2519828656745134	0.05136086314169775	-0.5625111138005026	-0.1676822412511651	-0.09662327656564267	0.02136505912437571	0.01324587757002892	-0.1103739631976786	-0.05355522084268822	0.006106560561670412	0.0988752181367738	-40.52761991104556	1.174023745101063	3.266932094555262	0.6957346302954652	-423.1688297504299	-62.55399062587635	-18.02278875857127	0.1766533022876836	0.2704157500476911	-0.8420366313222162	-0.1930177782436337	0.2601502441867582	-0.1098204234932992	0.9518526326933684	-0.1830122856446629	-0.1830122856446999	-0.2743970309042281	0.326837892471854	-0.1751408012378355	0.4136823521867423	1.432783098851372e-07	4.406973471888263e-06	-2.170199831471044e-06	4.950661681987946e-07	5.559425659873107e-07	3.144358979962093e-06	6.052200507944651e-07
1.56	-0.2800562822793428	0.09194496315548958	0.8354978122654519	0.7505827779988309	-0.3675270523622813	-0.1017076074972048	-0.2750122724970712	0.6075767580054156	0.6075767580053647	-0.0883452376118898	-0.1696319603152661	0.2363770637356352	0.1287366485273787	0.3911317091141599	0.2488220500979884	0.3394975066119169	-1.976870270619049	0.02927546028065247	-0.5976937153366044	0.6849799348948294	-1.989561280533478	-1.989561280533491	-0.2544088443478495	0.05507569857326784	-0.563923581746842	-0.1632588780202349	-0.09280293786162581	0.01981683698556957	0.01382286174456472	-0.1081527726008091	-0.05285476904927081	0.004640005509011365	0.0955979896312204	-40.30628668745814	1.690415698237705	3.27801725473588	0.8737223636496076	-421.1383669818753	-62.23256395356745	-18.74686114564488	0.1148695545614108	0.2374077986248674	-0.8822002540086711	0.03527646399076267	0.3112197942997068	0.02162015535230441	0.8880109171427896	0.01855523798919928	0.01855523798919927	-0.1867327491630055	0.4567854415175102	-0.09996017181594778	0.4948486389823462	1.167330759119587e-07	4.617572144235567e-06	-2.017686833075445e-06	5.301937656087679e-07	5.11564511254349e-07	3.15720176749097e-06	6.040634962198904e-07
1.57	-0.2761393738292492	0.09444460455846637	0.8388481501944501	0.7308175185099859	-0.3672203470805463	-0.1076858460630823	-0.268119951933501	0.5876843722467	0.5876843722465337	-0.0909002227506271	-0.1690627531882822	0.2307330688206298	0.1271267637171675	0.3921791072017184	0.2510516876742295	0.3305151667457937	-1.975877039392962	0.03206225056888787	-0.597867948295599	0.693344837998717	-1.988617844895322	-1.98861784489536	-0.2565648231308182	0.05877480950604549	-0.5647866459281909	-0.1587047630218814	-0.08906588434069346	0.01814073738738204	0.01434498879613409	-0.1059502188064433	-0.0522137465036284	0.003070815920517244	0.0923947121656984	-40.12549018241789	2.258971497544461	3.280222547656795	1.093315839301028	-419.3574847118689	-61.86075675795666	-19.44412791198101	0.0890622039656222	0.2076746202558895	-0.9144031625316534	0.1770539586689582	0.2616363214483955	-0.02352485300220766	0.789829033267175	0.1768235643646391	0.1768235643611011	-0.2258862681362237	0.3275666757497373	-0.06601133990421708	0.4371402289155232	8.762334120223476e-08	4.754037353697729e-06	-1.847950785292062e-06	5.564229707266533e-07	4.552226334609946e-07	3.115953086213609e-06	5.954954643924297e-07
